<svg width="641" height="235" viewBox="0 0 641 235" fill="none" xmlns="http://www.w3.org/2000/svg">
<rect width="641" height="235" fill="#D9D9D9"/>
<path d="M241.284 129V85.3636H246.568V124.312H266.852V129H241.284ZM310.153 107.182C310.153 111.784 309.322 115.761 307.66 119.114C305.998 122.466 303.718 125.051 300.821 126.869C297.923 128.688 294.613 129.597 290.892 129.597C287.17 129.597 283.86 128.688 280.963 126.869C278.065 125.051 275.785 122.466 274.123 119.114C272.461 115.761 271.63 111.784 271.63 107.182C271.63 102.58 272.461 98.6023 274.123 95.25C275.785 91.8977 278.065 89.3125 280.963 87.4943C283.86 85.6761 287.17 84.767 290.892 84.767C294.613 84.767 297.923 85.6761 300.821 87.4943C303.718 89.3125 305.998 91.8977 307.66 95.25C309.322 98.6023 310.153 102.58 310.153 107.182ZM305.039 107.182C305.039 103.403 304.407 100.214 303.143 97.6151C301.893 95.0156 300.196 93.0483 298.051 91.7131C295.92 90.3778 293.534 89.7102 290.892 89.7102C288.25 89.7102 285.856 90.3778 283.711 91.7131C281.581 93.0483 279.883 95.0156 278.619 97.6151C277.369 100.214 276.744 103.403 276.744 107.182C276.744 110.96 277.369 114.149 278.619 116.749C279.883 119.348 281.581 121.315 283.711 122.651C285.856 123.986 288.25 124.653 290.892 124.653C293.534 124.653 295.92 123.986 298.051 122.651C300.196 121.315 301.893 119.348 303.143 116.749C304.407 114.149 305.039 110.96 305.039 107.182ZM348.868 99C348.399 97.5653 347.781 96.2798 347.014 95.1435C346.261 93.9929 345.359 93.0128 344.308 92.2031C343.271 91.3935 342.092 90.7756 340.771 90.3494C339.45 89.9233 338.001 89.7102 336.424 89.7102C333.839 89.7102 331.488 90.3778 329.372 91.7131C327.255 93.0483 325.572 95.0156 324.322 97.6151C323.072 100.214 322.447 103.403 322.447 107.182C322.447 110.96 323.079 114.149 324.343 116.749C325.608 119.348 327.319 121.315 329.478 122.651C331.637 123.986 334.066 124.653 336.765 124.653C339.265 124.653 341.467 124.121 343.37 123.055C345.288 121.976 346.779 120.456 347.845 118.496C348.924 116.521 349.464 114.199 349.464 111.528L351.083 111.869H337.958V107.182H354.578V111.869C354.578 115.463 353.811 118.588 352.277 121.244C350.757 123.901 348.654 125.96 345.97 127.423C343.299 128.872 340.231 129.597 336.765 129.597C332.902 129.597 329.507 128.688 326.581 126.869C323.669 125.051 321.396 122.466 319.762 119.114C318.143 115.761 317.333 111.784 317.333 107.182C317.333 103.73 317.795 100.626 318.718 97.8707C319.656 95.1009 320.977 92.7429 322.681 90.7969C324.386 88.8509 326.403 87.3594 328.733 86.3224C331.062 85.2855 333.626 84.767 336.424 84.767C338.725 84.767 340.87 85.1151 342.859 85.8111C344.862 86.4929 346.645 87.4659 348.207 88.7301C349.784 89.9801 351.098 91.4787 352.149 93.2259C353.2 94.9588 353.924 96.8835 354.322 99H348.868ZM400.446 107.182C400.446 111.784 399.615 115.761 397.953 119.114C396.291 122.466 394.011 125.051 391.114 126.869C388.216 128.688 384.906 129.597 381.185 129.597C377.463 129.597 374.153 128.688 371.256 126.869C368.358 125.051 366.078 122.466 364.416 119.114C362.754 115.761 361.923 111.784 361.923 107.182C361.923 102.58 362.754 98.6023 364.416 95.25C366.078 91.8977 368.358 89.3125 371.256 87.4943C374.153 85.6761 377.463 84.767 381.185 84.767C384.906 84.767 388.216 85.6761 391.114 87.4943C394.011 89.3125 396.291 91.8977 397.953 95.25C399.615 98.6023 400.446 102.58 400.446 107.182ZM395.332 107.182C395.332 103.403 394.7 100.214 393.436 97.6151C392.186 95.0156 390.489 93.0483 388.344 91.7131C386.213 90.3778 383.827 89.7102 381.185 89.7102C378.543 89.7102 376.149 90.3778 374.004 91.7131C371.874 93.0483 370.176 95.0156 368.912 97.6151C367.662 100.214 367.037 103.403 367.037 107.182C367.037 110.96 367.662 114.149 368.912 116.749C370.176 119.348 371.874 121.315 374.004 122.651C376.149 123.986 378.543 124.653 381.185 124.653C383.827 124.653 386.213 123.986 388.344 122.651C390.489 121.315 392.186 119.348 393.436 116.749C394.7 114.149 395.332 110.96 395.332 107.182Z" fill="black"/>
</svg>
