<svg width="205" height="204" viewBox="0 0 205 204" fill="none" xmlns="http://www.w3.org/2000/svg">
<rect x="1" width="204" height="204" fill="white"/>
<path d="M69 161.062V83.4375" stroke="#1B6723" stroke-width="5" stroke-linecap="round" stroke-linejoin="round"/>
<path d="M69 117.938L43.125 105" stroke="#1B6723" stroke-width="5" stroke-linecap="round" stroke-linejoin="round"/>
<path d="M69 105L94.875 92.0625" stroke="#1B6723" stroke-width="5" stroke-linecap="round" stroke-linejoin="round"/>
<path d="M71.4258 133.678C75.3823 136.373 79.8564 138.215 84.5635 139.087C89.2706 139.959 94.1076 139.841 98.7668 138.743C103.426 137.644 107.806 135.587 111.627 132.704C115.448 129.82 118.628 126.173 120.963 121.994C123.299 117.815 124.739 113.196 125.192 108.431C125.645 103.665 125.102 98.8573 123.596 94.3131C122.091 89.7689 119.656 85.5878 116.447 82.0357C113.237 78.4835 109.324 75.6382 104.955 73.6805C103.996 73.1983 103.234 72.3981 102.799 71.4165C100.005 64.7588 95.306 59.0748 89.293 55.0776C83.28 51.0804 76.2204 48.948 69 48.948C61.7796 48.948 54.72 51.0804 48.707 55.0776C42.694 59.0748 37.9954 64.7588 35.2008 71.4165C34.7659 72.3981 34.0038 73.1983 33.0445 73.6805C28.676 75.6382 24.7626 78.4835 21.5534 82.0357C18.3442 85.5878 15.9094 89.7689 14.4037 94.3131C12.8981 98.8573 12.3547 103.665 12.808 108.431C13.2613 113.196 14.7014 117.815 17.0367 121.994C19.3721 126.173 22.5516 129.82 26.3729 132.704C30.1942 135.587 34.5738 137.644 39.2331 138.743C43.8924 139.841 48.7294 139.959 53.4365 139.087C58.1435 138.215 62.6176 136.373 66.5742 133.678C67.2948 133.205 68.138 132.953 69 132.953C69.862 132.953 70.7052 133.205 71.4258 133.678Z" stroke="#1B6723" stroke-width="5" stroke-linecap="round" stroke-linejoin="round"/>
<path d="M148 120.031V54.2188" stroke="#1B6723" stroke-width="5" stroke-linecap="round" stroke-linejoin="round"/>
<path d="M148 83.4688L126.625 72.5" stroke="#1B6723" stroke-width="5" stroke-linecap="round" stroke-linejoin="round"/>
<path d="M148 72.5L169.375 61.5312" stroke="#1B6723" stroke-width="5" stroke-linecap="round" stroke-linejoin="round"/>
<path d="M150.004 96.8141C153.272 99.0989 156.968 100.661 160.857 101.4C164.745 102.139 168.741 102.04 172.59 101.108C176.439 100.176 180.057 98.4325 183.214 95.9879C186.37 93.5433 188.997 90.4512 190.926 86.9082C192.855 83.3653 194.045 79.4491 194.419 75.4087C194.794 71.3683 194.345 67.2921 193.101 63.4394C191.857 59.5867 189.846 56.0418 187.195 53.0303C184.544 50.0187 181.311 47.6063 177.702 45.9465C176.91 45.5377 176.28 44.8592 175.921 44.027C173.612 38.3825 169.731 33.5634 164.764 30.1745C159.796 26.7856 153.965 24.9777 148 24.9777C142.035 24.9777 136.204 26.7856 131.236 30.1745C126.269 33.5634 122.388 38.3825 120.079 44.027C119.72 44.8592 119.09 45.5377 118.298 45.9465C114.689 47.6063 111.456 50.0187 108.805 53.0303C106.154 56.0418 104.143 59.5867 102.899 63.4394C101.655 67.2921 101.206 71.3683 101.581 75.4087C101.955 79.4491 103.145 83.3653 105.074 86.9082C107.003 90.4512 109.63 93.5433 112.786 95.9879C115.943 98.4325 119.561 100.176 123.41 101.108C127.259 102.04 131.255 102.139 135.143 101.4C139.032 100.661 142.728 99.0989 145.996 96.8141C146.591 96.4131 147.288 96.1994 148 96.1994C148.712 96.1994 149.409 96.4131 150.004 96.8141Z" stroke="#1B6723" stroke-width="5" stroke-linecap="round" stroke-linejoin="round"/>
<path d="M138 116L114.25 148.5H126.125L109.5 171H166.5L149.875 148.5H161.75L138 116Z" stroke="#1B6723" stroke-width="5" stroke-linecap="round" stroke-linejoin="round"/>
<path d="M138 171V186" stroke="#1B6723" stroke-width="5" stroke-linecap="round" stroke-linejoin="round"/>
</svg>
