<svg width="494" height="598" viewBox="0 0 494 598" fill="none" xmlns="http://www.w3.org/2000/svg">
<path d="M59.4012 263.374C68.5447 266.845 27.7209 261.117 12.3701 251.823C-2.98068 242.528 19.2542 219.008 38.777 224.941C58.2997 230.874 50.2578 259.904 59.4012 263.374Z" fill="#7C9E6C"/>
<path d="M3.7926 234.231L11.1094 233.972C13.3718 233.773 17.0049 233.806 20.8188 234.504M32.7998 240.13C31.0275 238.291 28.7414 236.961 26.2855 236.012M32.7998 240.13C33.7037 241.067 34.6447 242.085 35.6067 243.148M32.7998 240.13L32.6448 250.78M53.1923 260.297C50.8492 260.138 46.2 255.113 41.287 249.558M26.2855 236.012L35.6363 230.06M26.2855 236.012C24.5087 235.325 22.6431 234.839 20.8188 234.504M20.8188 234.504L23.8906 249.132M35.6067 243.148L48.0347 240.44M35.6067 243.148C37.4614 245.198 39.3938 247.418 41.287 249.558M41.287 249.558L42.5213 258.356" stroke="#736551" stroke-linecap="round" stroke-linejoin="round"/>
<path d="M60.3253 335.952C66.7512 325.682 49.9288 373.897 34.9272 390.302C19.9255 406.707 -3.27837 374.01 8.647 351.724C20.5724 329.438 53.8995 346.223 60.3253 335.952Z" fill="#7C9E6C"/>
<path d="M11.481 396.474L12.9348 387.521C13.2394 384.725 14.1568 380.318 15.9271 375.853M25.6566 362.656C22.9948 364.365 20.8255 366.821 19.0792 369.576M25.6566 362.656C27.014 361.784 28.4779 360.887 30.0021 359.975M25.6566 362.656L38.5587 365.418M55.086 342.752C54.327 345.561 47.0988 349.995 39.1626 354.622M19.0792 369.576L14.1077 356.777M19.0792 369.576C17.8159 371.569 16.7739 373.718 15.9271 375.853M15.9271 375.853L34.4418 375.655M30.0021 359.975L29.7149 344.221M30.0021 359.975C32.941 358.217 36.1044 356.405 39.1626 354.622M39.1626 354.622L50.1497 355.248" stroke="#736551" stroke-linecap="round" stroke-linejoin="round"/>
<path d="M147.702 374.558C156.511 377.902 117.181 372.384 102.391 363.429C87.6022 354.475 109.024 331.815 127.832 337.531C146.641 343.247 138.893 371.215 147.702 374.558Z" fill="#7C9E6C"/>
<path d="M94.1277 346.481L101.177 346.232C103.356 346.04 106.857 346.071 110.531 346.744M122.074 352.164C120.366 350.393 118.164 349.111 115.798 348.197M122.074 352.164C122.944 353.067 123.851 354.048 124.778 355.072M122.074 352.164L121.924 362.425M141.72 371.593C139.463 371.44 134.984 366.599 130.25 361.248M115.798 348.197L124.806 342.463M115.798 348.197C114.086 347.535 112.288 347.066 110.531 346.744M110.531 346.744L113.49 360.837M124.778 355.072L136.751 352.463M124.778 355.072C126.565 357.047 128.426 359.185 130.25 361.248M130.25 361.248L131.439 369.723" stroke="#736551" stroke-linecap="round" stroke-linejoin="round"/>
<path d="M353.756 412.999C362.565 416.343 323.235 410.825 308.446 401.87C293.656 392.915 315.078 370.256 333.886 375.972C352.695 381.688 344.947 409.655 353.756 412.999Z" fill="#7C9E6C"/>
<path d="M300.182 384.921L307.231 384.672C309.411 384.481 312.911 384.512 316.585 385.185M328.128 390.605C326.42 388.834 324.218 387.551 321.852 386.637M328.128 390.605C328.999 391.508 329.905 392.488 330.832 393.513M328.128 390.605L327.979 400.865M347.774 410.034C345.517 409.881 341.038 405.04 336.305 399.688M321.852 386.637L330.861 380.903M321.852 386.637C320.14 385.976 318.343 385.507 316.585 385.185M316.585 385.185L319.545 399.278M330.832 393.513L342.805 390.904M330.832 393.513C332.619 395.488 334.481 397.626 336.305 399.688M336.305 399.688L337.494 408.164" stroke="#736551" stroke-linecap="round" stroke-linejoin="round"/>
<path d="M238.262 256.638C246.857 252.779 215.13 276.668 198.338 280.784C181.546 284.899 180.69 253.728 198.037 244.481C215.384 235.234 229.666 260.498 238.262 256.638Z" fill="#7C9E6C"/>
<path d="M180.515 274.632L185.326 269.474C186.733 267.798 189.231 265.347 192.307 263.226M204.304 258.904C201.844 258.858 199.379 259.507 197.059 260.532M204.304 258.904C205.558 258.928 206.892 258.981 208.272 259.051M204.304 258.904L211.449 266.269M231.934 258.768C230.229 260.255 223.639 259.995 216.508 259.553M197.059 260.532L199.382 250.109M197.059 260.532C195.381 261.274 193.778 262.212 192.307 263.226M192.307 263.226L204.36 271.106M208.272 259.051L214.9 248.744M208.272 259.051C210.932 259.185 213.76 259.383 216.508 259.553M216.508 259.553L223.339 264.71" stroke="#736551" stroke-linecap="round" stroke-linejoin="round"/>
<path d="M316.751 283.552C325.347 279.692 293.62 303.582 276.828 307.697C260.036 311.812 259.18 280.642 276.527 271.395C293.874 262.148 308.156 287.411 316.751 283.552Z" fill="#7C9E6C"/>
<path d="M259.004 301.545L263.816 296.387C265.222 294.711 267.721 292.26 270.796 290.14M282.793 285.818C280.334 285.771 277.869 286.42 275.549 287.445M282.793 285.818C284.048 285.841 285.382 285.894 286.762 285.964M282.793 285.818L289.938 293.183M310.424 285.681C308.719 287.168 302.129 286.908 294.998 286.466M275.549 287.445L277.871 277.022M275.549 287.445C273.871 288.187 272.268 289.126 270.796 290.14M270.796 290.14L282.849 298.02M286.762 285.964L293.39 275.657M286.762 285.964C289.422 286.099 292.25 286.296 294.998 286.466M294.998 286.466L301.829 291.623" stroke="#736551" stroke-linecap="round" stroke-linejoin="round"/>
<path d="M126.675 302.041C132.336 304.19 107.059 300.644 97.5542 294.889C88.0493 289.134 101.817 274.571 113.905 278.244C125.993 281.918 121.013 299.892 126.675 302.041Z" fill="#7C9E6C"/>
<path d="M92.2431 283.996L96.7734 283.836C98.1743 283.713 100.424 283.733 102.785 284.166M110.204 287.649C109.106 286.511 107.691 285.687 106.17 285.099M110.204 287.649C110.763 288.229 111.346 288.86 111.942 289.518M110.204 287.649L110.108 294.243M122.83 300.136C121.379 300.038 118.501 296.926 115.459 293.487M106.17 285.099L111.96 281.414M106.17 285.099C105.07 284.674 103.915 284.373 102.785 284.166M102.785 284.166L104.687 293.223M111.942 289.518L119.637 287.841M111.942 289.518C113.09 290.787 114.286 292.161 115.459 293.487M115.459 293.487L116.223 298.934" stroke="#736551" stroke-linecap="round" stroke-linejoin="round"/>
<path d="M114.741 443.952C120.402 446.101 95.1249 442.554 85.6201 436.799C76.1153 431.044 89.8826 416.481 101.971 420.155C114.059 423.828 109.079 441.803 114.741 443.952Z" fill="#7C9E6C"/>
<path d="M80.309 425.907L84.8393 425.747C86.2402 425.624 88.4897 425.644 90.8512 426.076M98.2695 429.559C97.1722 428.421 95.7567 427.597 94.2361 427.01M98.2695 429.559C98.8292 430.14 99.4119 430.77 100.007 431.428M98.2695 429.559L98.1736 436.154M110.896 442.046C109.445 441.948 106.567 438.837 103.525 435.397M94.2361 427.01L100.026 423.325M94.2361 427.01C93.1359 426.585 91.9807 426.283 90.8512 426.076M90.8512 426.076L92.7532 435.134M100.007 431.428L107.703 429.752M100.007 431.428C101.156 432.698 102.352 434.072 103.525 435.397M103.525 435.397L104.289 440.845" stroke="#736551" stroke-linecap="round" stroke-linejoin="round"/>
<path d="M-10.8883 238.158C-0.279472 232.308 -38.4226 266.261 -59.5079 273.303C-80.5933 280.344 -84.9719 240.49 -63.7154 226.814C-42.4588 213.137 -21.4971 244.008 -10.8883 238.158Z" fill="#7C9E6C"/>
<path d="M115.706 156.426C113.509 144.512 133.665 191.432 133.68 213.662C133.696 235.892 94.5008 227.448 88.2449 202.959C81.9891 178.469 117.903 168.34 115.706 156.426Z" fill="#7C9E6C"/>
<path d="M120.556 234.047L115.583 226.464C113.918 224.195 111.619 220.326 109.909 215.837M108.172 199.534C107.363 202.592 107.422 205.868 107.994 209.079M108.172 199.534C108.585 197.974 109.058 196.324 109.566 194.622M108.172 199.534L119.552 192.857M116.434 164.98C117.771 167.563 115.435 175.715 112.707 184.488M107.994 209.079L95.6843 202.997M107.994 209.079C108.409 211.402 109.092 213.691 109.909 215.837M109.909 215.837L123.43 203.188M109.566 194.622L98.7152 183.197M109.566 194.622C110.546 191.34 111.656 187.868 112.707 184.488M112.707 184.488L121.233 177.529" stroke="#736551" stroke-linecap="round" stroke-linejoin="round"/>
<path d="M194.111 396.702C191.914 384.788 212.07 431.708 212.085 453.938C212.101 476.168 172.906 467.725 166.65 443.235C160.394 418.745 196.308 408.617 194.111 396.702Z" fill="#7C9E6C"/>
<path d="M198.961 474.324L193.987 466.74C192.323 464.471 190.024 460.602 188.314 456.114M186.577 439.81C185.768 442.868 185.827 446.144 186.399 449.355M186.577 439.81C186.989 438.25 187.463 436.6 187.971 434.898M186.577 439.81L197.957 433.133M194.839 405.256C196.176 407.84 193.84 415.992 191.112 424.764M186.399 449.355L174.089 443.273M186.399 449.355C186.813 451.678 187.496 453.967 188.314 456.114M188.314 456.114L201.835 443.464M187.971 434.898L177.12 423.473M187.971 434.898C188.951 431.617 190.061 428.144 191.112 424.764M191.112 424.764L199.638 417.805" stroke="#736551" stroke-linecap="round" stroke-linejoin="round"/>
<path d="M255.93 366.837C269.601 372.026 208.565 363.462 185.615 349.566C162.664 335.67 195.907 300.505 225.095 309.376C254.283 318.246 242.26 361.648 255.93 366.837Z" fill="#7C9E6C"/>
<path d="M172.791 323.265L183.73 322.878C187.113 322.58 192.545 322.629 198.247 323.674M216.159 332.084C213.51 329.336 210.092 327.346 206.42 325.927M216.159 332.084C217.511 333.486 218.918 335.007 220.356 336.597M216.159 332.084L215.928 348.007M246.648 362.236C243.145 361.998 236.194 354.486 228.848 346.181M206.42 325.927L220.4 317.029M206.42 325.927C203.763 324.901 200.974 324.173 198.247 323.674M198.247 323.674L202.839 345.544M220.356 336.597L238.937 332.548M220.356 336.597C223.129 339.662 226.018 342.98 228.848 346.181M228.848 346.181L230.694 359.334" stroke="#736551" stroke-linecap="round" stroke-linejoin="round"/>
<path d="M466.881 367.172C480.551 372.361 419.516 363.798 396.565 349.901C373.614 336.005 406.857 300.84 436.046 309.711C465.234 318.581 453.21 361.983 466.881 367.172Z" fill="#7C9E6C"/>
<path d="M383.741 323.6L394.68 323.213C398.063 322.915 403.495 322.964 409.197 324.009M427.11 332.419C424.46 329.671 421.042 327.681 417.37 326.262M427.11 332.419C428.461 333.821 429.868 335.342 431.306 336.932M427.11 332.419L426.878 348.342M457.598 362.571C454.095 362.333 447.144 354.821 439.799 346.516M417.37 326.262L431.35 317.364M417.37 326.262C414.714 325.236 411.924 324.508 409.197 324.009M409.197 324.009L413.79 345.879M431.306 336.932L449.887 332.884M431.306 336.932C434.079 339.997 436.968 343.315 439.799 346.516M439.799 346.516L441.644 359.669" stroke="#736551" stroke-linecap="round" stroke-linejoin="round"/>
</svg>
