<svg width="350" height="320" viewBox="0 0 350 320" fill="none" xmlns="http://www.w3.org/2000/svg">
<g opacity="0.8" filter="url(#filter0_d_22_29)">
<path d="M151.245 133.51C150.512 125.425 165.519 100.666 173.005 94.9792C180.492 89.2926 181.224 91.3986 184.54 92.8305C187.856 94.2623 211.825 165.472 227.162 166.315C227.162 166.315 184.844 179.601 182.904 172.45C180.965 165.299 151.978 141.596 151.245 133.51Z" fill="#D6BCA5" fill-opacity="0.83" stroke="#D6BCA5"/>
<path d="M184.956 118.863C185.729 122.369 186.112 127.482 183.591 127.609M178.933 124.873C181.073 126.894 182.57 127.66 183.591 127.609M181.799 137.146C183.478 138.057 186.186 137.426 183.591 127.609M167.265 119.838C167.957 121.144 170.229 124.605 173.781 127.995C177.334 131.385 175.462 131.469 174.082 131.087M153.198 126.915C155.082 126.357 159.012 126.299 161.656 128.262C163.971 129.98 168.481 126.79 171.648 128.678M162.451 136.992C167.113 134.548 172.376 139.277 174.334 142.507C176.291 145.737 176.427 135.452 172.206 133.061M191.652 123.485C188.145 125.61 191.942 132.37 191.887 133.393C191.833 134.416 187.406 137.25 185.826 139.959M194.86 151.158C197.327 136.188 184.544 137.843 191.821 151.706M187.57 147.658C185.881 141.905 175.302 138.171 185.889 152.179M199.092 131.311C196.667 128.212 193.142 128.034 198.438 152.112M203.192 152.048C201.221 151.847 198.261 153.803 202.183 163.243M192.564 154.91C191.021 155.414 190.215 159.516 199.335 171.897M187.846 155.409C184.773 154.377 179.596 153.936 183.467 160.423C187.337 166.909 189.895 166.704 190.69 165.791M189.991 168.346C191.453 168.78 194.68 170.149 195.895 172.154M200.129 162.203C199.013 161.763 197.083 162.146 198.288 167.202M170.734 146.211C172.005 146.126 175.609 147.658 179.856 154.464C181.89 157.724 181.309 150.309 185.505 152.411" stroke="#D5D5D5"/>
<path d="M122.04 135.801C112.06 139.237 92.7534 173.923 91.3627 183.003C89.972 192.084 92.7534 192.575 96.7619 194.62C100.77 196.665 205.572 167.79 217.345 180.14C217.345 180.14 229.944 166.56 220.209 168.524C210.474 170.487 132.021 132.365 122.04 135.801Z" fill="#D6BCA5" stroke="#D6BCA5"/>
<path d="M113.369 150.281C117.639 151.756 123.382 154.72 121.877 157.558M115.905 160.834C119.47 159.834 121.267 158.706 121.877 157.558M130.957 165.824C133.03 164.594 134.115 161.22 121.877 157.558M102.898 170.242C104.752 170.351 109.949 170.16 115.905 168.524C121.86 166.888 120.732 168.987 119.423 170.242M101.343 190.284C101.97 187.857 104.467 183.528 108.297 181.94C111.651 180.549 111.16 173.514 115.25 171.305M118.195 186.848C118.605 180.14 127.112 177.522 131.857 177.522C136.602 177.522 125.64 170.569 120.322 173.596M122.695 146.027C122.695 151.262 132.43 151.59 133.493 152.326C134.557 153.062 134.72 159.77 136.602 163.288M154.518 160.834C140.038 148.236 133.493 163.288 153.127 164.515M146.01 166.478C138.729 164.515 127.829 173.596 149.773 171.305M135.948 143.082C131.039 143.679 128.552 147.411 157.872 157.558M160.899 152.326C159.399 154.344 159.573 158.87 172.27 160.834M157.054 165.824C156.59 167.842 160.473 171.436 179.714 169.669M154.518 171.305C151.409 173.977 147.564 179.339 157.054 179.404C166.543 179.469 167.989 176.541 167.525 175.068M169.816 177.522C171.234 176.214 174.806 173.596 177.751 173.596M169.816 162.388C168.616 163.315 167.77 165.677 173.988 167.706M133.493 183.903C134.23 182.459 138.222 179.538 148.3 179.404C153.127 179.34 144.783 175.068 149.773 171.878" stroke="#D5D5D5"/>
<path d="M222.254 265.956L220.863 259.902L215.791 251.639V241.986L210.392 246.077L213.501 237.078H205.238L206.793 231.106L203.929 233.069V226.852L197.221 231.106L200.821 223.907L191.658 226.852L187.813 215.644L182.66 216.79L184.214 208.527L177.751 210.736L176.197 192.82L170.798 197.32C168.289 197.32 163.664 198.04 165.235 200.919C166.805 203.799 161.744 205.991 159.017 206.727V209.591V214.09L166.38 217.69L159.017 221.207V229.961L165.235 228.57L159.017 238.469H164.58V247.631L169.489 244.44L168.18 250.494H174.152L170.798 257.448L181.105 252.785V258.757L185.359 255.648V262.847L187.813 258.757L190.513 270.619L200.821 262.847L194.767 270.619H199.185H206.793L210.392 281.172H213.501V275.527L217.346 273.073L219.145 270.619V265.956H222.254Z" fill="#FEA623"/>
<path fill-rule="evenodd" clip-rule="evenodd" d="M260.213 164.924L253.341 168.442L254.322 173.187L252.604 174.905H255.631L250.805 179.568H257.595L250.805 184.149H255.631L251.541 190.448L255.141 193.475L252.604 195.602L259.149 198.301L254.322 199.283L259.149 201.983L255.141 207.627L260.213 208.527L255.631 214.09L260.213 216.79L265.857 217.69L266.921 221.207L273.874 216.79L278.374 218.998L280.828 214.09L287.536 216.79L290.154 214.09V210.736C291.572 209.836 294.408 206.826 294.408 201.983C294.408 197.14 297.407 196.856 298.907 197.32L294.408 189.303V184.149H291.79L296.208 180.14L291.79 177.85L288.763 175.518L285.736 173.187L284.182 171.387L282.628 169.587L278.374 171.141V168.033L270.766 171.141V166.233H265.121V164.924H260.213ZM243.442 233.069L237.797 229.961L236.979 225.052H234.525C233.516 224.943 231.662 224.021 232.316 221.207C232.971 218.393 234.825 215.29 235.67 214.09C233.033 213.611 228.429 213.176 227.138 214.391C226.947 212.072 226.406 207.974 226.017 205.255H221.418L223.808 194.62L215.791 195.602L220.863 188.157C218.955 189.521 214.662 191.953 212.765 190.775C210.867 189.597 215.028 185.867 217.346 184.149L219.145 179.568L208.756 177.85L213.501 171.141H202.13L200.821 175.886H191.658L189.368 182.758H179.96V188.157H176.197V192.82L177.751 210.736L184.214 208.527L182.66 216.79L187.813 215.644L191.658 226.852L200.821 223.907L197.221 231.106L203.929 226.852V233.069L206.793 231.106L205.238 237.078H213.501L210.392 246.077L215.791 241.986V251.639L220.863 259.902L219.145 252.785L223.808 250.494V244.44L230.926 241.986V237.078L234.525 238.469L236.979 233.069H243.442ZM148.955 215.644L159.017 209.591V214.09L166.38 217.69L159.017 221.207V229.961L165.235 228.57L159.017 238.469H164.58V247.631L169.489 244.44L168.18 250.494H174.152L170.798 257.448L181.105 252.785V258.757L185.359 255.648V262.847L187.813 258.757L190.513 270.619L200.821 262.847L194.767 270.619H199.185H206.793L210.392 281.172V282.726L206.793 290.089L203.929 287.88L202.13 294.588L197.221 291.398L189.368 298.351V294.588L186.668 297.206H183.805L179.96 301.051L177.751 297.206L174.152 301.051L172.597 298.351L169.489 299.906L168.18 297.206H164.58L163.271 293.197L160.326 294.588L159.017 290.089L153.864 291.398V286.244H143.556V275.527H138.893L146.01 265.956H141.879L137.748 259.902L143.556 257.448L141.879 255.648L143.556 252.785H138.893L141.879 244.44H138.893L146.01 237.078L142.656 236.178L147.155 233.069L143.556 229.961L150.755 225.052L147.155 222.598L150.755 218.998L148.955 215.644Z" fill="#303030"/>
<path d="M227.163 162.224L226.017 166.233L215.791 168.033L213.501 171.141L208.756 177.85L219.145 179.568L217.346 184.149C215.028 185.867 210.867 189.597 212.765 190.775C214.662 191.953 218.955 189.521 220.863 188.157L215.791 195.602L223.808 194.62L221.418 205.255H226.017C226.406 207.974 226.947 212.072 227.138 214.391C228.429 213.176 233.033 213.611 235.67 214.09C234.825 215.29 232.971 218.393 232.316 221.207C231.662 224.021 233.516 224.943 234.525 225.052H236.979L237.797 229.961L243.442 233.069V228.57H249.741L251.541 225.052L252.604 221.207L257.595 218.998L260.213 216.79L255.631 214.09L260.213 208.527L255.141 207.627L259.149 201.983L254.322 199.283L259.149 198.301L252.604 195.602L255.141 193.475L251.541 190.448L255.631 184.149H250.805L257.595 179.568H250.805L255.631 174.905H252.604L254.322 173.187L253.341 168.442L260.213 164.924L257.595 160.016L252.604 162.47L251.541 160.016L247.696 162.224L243.442 160.016V164.924L236.979 160.016L235.67 164.924L232.316 162.224V166.233L227.163 162.224Z" fill="#E5A743"/>
<path d="M284.182 171.387L285.736 173.187C286.26 171.092 308.642 162.988 319.768 159.198L321.977 157.48C321.622 157.016 320.046 156.105 316.577 156.171C313.109 156.236 293.535 166.342 284.182 171.387Z" fill="#303030"/>
<path d="M288.763 175.518L291.79 177.85C291.79 176.017 300.08 178.613 304.225 180.14C308.07 177.195 318.295 185.948 321.977 187.339C324.922 188.452 326.04 186.548 326.231 185.458C321.104 183.331 309.346 178.488 303.325 176.132C297.304 173.776 291.108 174.741 288.763 175.518Z" fill="#303030"/>
<path d="M257.595 218.998L252.604 221.207L251.541 225.052L266.348 245.013L263.976 271.519C264.521 272.2 265.874 272.975 266.921 270.619C267.968 268.263 270.302 254.312 271.338 247.631C265.884 238.523 255.5 220.046 257.595 218.998Z" fill="#303030"/>
<path d="M243.442 233.069H236.979L234.525 238.469L242.46 251.639C245.351 253.057 251.721 258.102 254.077 266.937C256.433 275.773 257.022 272.309 257.022 269.473C257.622 270.674 258.552 272.999 258.478 274.511L259.394 271.519L258.167 264.565L247.369 249.349C244.587 247.167 238.992 241.937 238.861 238.469C238.73 235 241.861 233.424 243.442 233.069Z" fill="#303030"/>
<path d="M219.145 252.785L220.863 259.902L222.254 265.956L228.962 275.527L217.346 314.467L219.145 315.531L234.525 275.527L219.145 252.785Z" fill="#303030"/>
<path d="M226.017 166.233L226.104 166.725L226.412 166.671L226.498 166.37L226.017 166.233ZM227.163 162.224L227.469 161.83L226.885 161.375L226.682 162.087L227.163 162.224ZM232.316 166.233L232.009 166.628L232.816 167.255V166.233H232.316ZM232.316 162.224L232.63 161.835L231.816 161.18V162.224H232.316ZM235.67 164.924L235.357 165.314L235.956 165.795L236.154 165.053L235.67 164.924ZM236.979 160.016L237.282 159.618L236.688 159.167L236.496 159.887L236.979 160.016ZM243.442 164.924L243.14 165.322L243.942 165.932V164.924H243.442ZM243.442 160.016L243.673 159.572L242.942 159.193V160.016H243.442ZM247.696 162.224L247.466 162.668L247.708 162.794L247.945 162.658L247.696 162.224ZM251.541 160.016L252 159.817L251.777 159.303L251.292 159.582L251.541 160.016ZM252.604 162.47L252.146 162.669L252.354 163.15L252.825 162.919L252.604 162.47ZM257.595 160.016L258.036 159.78L257.808 159.353L257.374 159.567L257.595 160.016ZM265.121 164.924H265.621V164.424H265.121V164.924ZM265.121 166.233H264.621V166.733H265.121V166.233ZM270.766 166.233H271.266V165.733H270.766V166.233ZM270.766 171.141H270.266V171.886L270.955 171.604L270.766 171.141ZM278.374 168.033H278.874V167.288L278.185 167.57L278.374 168.033ZM278.374 171.141H277.874V171.856L278.545 171.611L278.374 171.141ZM282.628 169.587L283.006 169.26L282.78 168.999L282.456 169.117L282.628 169.587ZM285.736 173.187L285.358 173.513L285.391 173.552L285.431 173.583L285.736 173.187ZM291.79 177.85L291.485 178.246L291.52 178.273L291.56 178.293L291.79 177.85ZM296.208 180.14L296.544 180.51L297.076 180.027L296.438 179.696L296.208 180.14ZM291.79 184.149L291.454 183.778L290.495 184.649H291.79V184.149ZM294.408 184.149H294.908V183.649H294.408V184.149ZM294.408 189.303H293.908V189.433L293.972 189.547L294.408 189.303ZM298.907 197.32L298.76 197.797L299.956 198.167L299.343 197.075L298.907 197.32ZM290.154 210.736L289.886 210.314L289.654 210.461V210.736H290.154ZM290.154 214.09L290.513 214.438L290.654 214.293V214.09H290.154ZM287.536 216.79L287.349 217.254L287.661 217.379L287.895 217.138L287.536 216.79ZM280.828 214.09L281.015 213.626L280.587 213.454L280.381 213.866L280.828 214.09ZM278.374 218.998L278.153 219.447L278.599 219.666L278.821 219.222L278.374 218.998ZM273.874 216.79L274.095 216.341L273.843 216.217L273.606 216.368L273.874 216.79ZM266.921 221.207L266.442 221.352L266.633 221.983L267.189 221.629L266.921 221.207ZM265.857 217.69L266.336 217.545L266.245 217.245L265.936 217.196L265.857 217.69ZM257.595 218.998L257.818 219.446L257.872 219.419L257.917 219.381L257.595 218.998ZM252.604 221.207L252.402 220.75L252.186 220.846L252.123 221.074L252.604 221.207ZM249.741 228.57V229.07H250.047L250.186 228.798L249.741 228.57ZM243.442 228.57V228.07H242.942V228.57H243.442ZM243.442 233.069L243.551 233.557L243.942 233.47V233.069H243.442ZM236.979 233.069V232.569H236.657L236.524 232.862L236.979 233.069ZM230.926 237.078L231.106 236.611L230.426 236.349V237.078H230.926ZM230.926 241.986L231.089 242.459L231.426 242.343V241.986H230.926ZM223.808 244.44L223.645 243.968L223.308 244.084V244.44H223.808ZM223.808 250.494L224.029 250.943L224.308 250.806V250.494H223.808ZM219.145 252.785L218.925 252.336L218.565 252.513L218.659 252.902L219.145 252.785ZM220.863 259.902L221.351 259.79L221.349 259.785L220.863 259.902ZM219.145 265.956V265.456H218.645V265.956H219.145ZM219.145 270.619L219.549 270.914L219.645 270.782V270.619H219.145ZM217.346 273.073L217.615 273.494L217.694 273.444L217.749 273.369L217.346 273.073ZM213.501 275.527L213.232 275.106L213.001 275.253V275.527H213.501ZM213.501 281.172V281.672H214.001V281.172H213.501ZM210.392 282.726L210.841 282.946L210.892 282.842V282.726H210.392ZM206.793 290.089L206.487 290.485L206.973 290.859L207.242 290.308L206.793 290.089ZM203.929 287.88L204.235 287.484L203.641 287.026L203.446 287.75L203.929 287.88ZM202.13 294.588L201.857 295.007L202.434 295.382L202.613 294.718L202.13 294.588ZM197.221 291.398L197.494 290.978L197.175 290.771L196.89 291.023L197.221 291.398ZM189.368 298.351H188.868V299.462L189.699 298.726L189.368 298.351ZM189.368 294.588H189.868V293.407L189.02 294.229L189.368 294.588ZM186.668 297.206V297.706H186.871L187.016 297.565L186.668 297.206ZM183.805 297.206V296.706H183.598L183.451 296.852L183.805 297.206ZM179.96 301.051L179.526 301.3L179.852 301.866L180.313 301.404L179.96 301.051ZM177.751 297.206L178.185 296.957L177.848 296.371L177.386 296.864L177.751 297.206ZM174.152 301.051L173.718 301.3L174.055 301.885L174.517 301.393L174.152 301.051ZM172.597 298.351L173.031 298.102L172.795 297.693L172.374 297.904L172.597 298.351ZM169.489 299.906L169.039 300.124L169.26 300.579L169.712 300.353L169.489 299.906ZM168.18 297.206L168.63 296.988L168.493 296.706H168.18V297.206ZM164.58 297.206L164.105 297.361L164.218 297.706H164.58V297.206ZM163.271 293.197L163.747 293.042L163.571 292.503L163.058 292.745L163.271 293.197ZM160.326 294.588L159.846 294.728L160.01 295.29L160.54 295.04L160.326 294.588ZM159.017 290.089L159.497 289.949L159.363 289.485L158.894 289.604L159.017 290.089ZM153.864 291.398H153.364V292.04L153.987 291.882L153.864 291.398ZM153.864 286.244H154.364V285.744H153.864V286.244ZM143.556 286.244H143.056V286.744H143.556V286.244ZM143.556 275.527H144.056V275.027H143.556V275.527ZM138.893 275.527L138.492 275.229L137.898 276.027H138.893V275.527ZM146.01 265.956L146.411 266.254L147.005 265.456H146.01V265.956ZM137.748 259.902L137.553 259.441L136.99 259.679L137.335 260.184L137.748 259.902ZM143.556 257.448L143.75 257.908L144.409 257.63L143.922 257.107L143.556 257.448ZM141.879 255.648L141.447 255.395L141.259 255.717L141.513 255.989L141.879 255.648ZM143.556 252.785L143.987 253.037L144.428 252.285H143.556V252.785ZM138.893 252.785L138.422 252.616L138.183 253.285H138.893V252.785ZM141.879 244.44L142.35 244.609L142.589 243.94H141.879V244.44ZM138.893 244.44L138.533 244.093L137.714 244.94H138.893V244.44ZM146.01 237.078L146.37 237.425L146.96 236.815L146.14 236.595L146.01 237.078ZM142.656 236.178L142.372 235.767L141.483 236.381L142.526 236.661L142.656 236.178ZM147.155 233.069L147.44 233.481L147.971 233.113L147.482 232.691L147.155 233.069ZM143.556 229.961L143.274 229.548L142.737 229.914L143.229 230.339L143.556 229.961ZM150.755 225.052L151.037 225.465L151.642 225.052L151.037 224.639L150.755 225.052ZM147.155 222.598L146.802 222.244L146.375 222.671L146.874 223.011L147.155 222.598ZM150.755 218.998L151.108 219.352L151.371 219.089L151.195 218.762L150.755 218.998ZM148.955 215.644L148.697 215.216L148.289 215.461L148.515 215.881L148.955 215.644ZM159.017 206.727L158.887 206.245L158.517 206.345V206.727H159.017ZM170.798 197.32V197.82H170.979L171.118 197.704L170.798 197.32ZM176.197 188.157V187.657H175.697V188.157H176.197ZM179.96 188.157V188.657H180.46V188.157H179.96ZM179.96 182.758V182.258H179.46V182.758H179.96ZM189.368 182.758V183.258H189.728L189.842 182.916L189.368 182.758ZM191.658 175.886V175.386H191.298L191.184 175.728L191.658 175.886ZM200.821 175.886V176.386H201.201L201.303 176.019L200.821 175.886ZM202.13 171.141V170.641H201.749L201.648 171.008L202.13 171.141ZM215.791 168.033L215.705 167.54L215.508 167.575L215.389 167.736L215.791 168.033ZM177.751 210.736L177.253 210.779L177.308 211.416L177.913 211.209L177.751 210.736ZM184.214 208.527L184.705 208.62L184.864 207.777L184.052 208.054L184.214 208.527ZM182.66 216.79L182.168 216.697L182.028 217.442L182.768 217.278L182.66 216.79ZM187.813 215.644L188.286 215.482L188.141 215.059L187.705 215.156L187.813 215.644ZM191.658 226.852L191.185 227.014L191.345 227.478L191.811 227.328L191.658 226.852ZM200.821 223.907L201.268 224.131L201.8 223.067L200.668 223.431L200.821 223.907ZM197.221 231.106L196.774 230.882L195.969 232.492L197.489 231.528L197.221 231.106ZM203.929 226.852H204.429V225.943L203.662 226.43L203.929 226.852ZM203.929 233.069H203.429V234.018L204.212 233.482L203.929 233.069ZM206.793 231.106L207.276 231.232L207.614 229.937L206.51 230.694L206.793 231.106ZM205.238 237.078L204.754 236.952L204.591 237.578H205.238V237.078ZM213.501 237.078L213.973 237.241L214.202 236.578H213.501V237.078ZM210.392 246.077L209.92 245.913L209.382 247.469L210.694 246.475L210.392 246.077ZM215.791 241.986H216.291V240.98L215.489 241.588L215.791 241.986ZM215.791 251.639H215.291V251.781L215.365 251.901L215.791 251.639ZM206.793 270.619L207.266 270.457L207.15 270.119H206.793V270.619ZM194.767 270.619L194.373 270.311L193.744 271.119H194.767V270.619ZM200.821 262.847L201.215 263.154L200.52 262.448L200.821 262.847ZM190.513 270.619L190.025 270.73L190.197 271.483L190.814 271.018L190.513 270.619ZM187.813 258.757L188.301 258.646L188.025 257.432L187.385 258.499L187.813 258.757ZM185.359 262.847H184.859V264.652L185.788 263.104L185.359 262.847ZM185.359 255.648H185.859V254.663L185.064 255.244L185.359 255.648ZM181.105 258.757H180.605V259.741L181.4 259.16L181.105 258.757ZM181.105 252.785H181.605V252.01L180.899 252.329L181.105 252.785ZM170.798 257.448L170.347 257.231L169.749 258.471L171.004 257.903L170.798 257.448ZM174.152 250.494L174.602 250.711L174.948 249.994H174.152V250.494ZM168.18 250.494L167.691 250.388L167.56 250.994H168.18V250.494ZM169.489 244.44L169.977 244.546L170.234 243.36L169.216 244.021L169.489 244.44ZM164.58 247.631H164.08V248.552L164.853 248.05L164.58 247.631ZM164.58 238.469H165.08V237.969H164.58V238.469ZM159.017 238.469L158.594 238.203L158.113 238.969H159.017V238.469ZM165.235 228.57L165.658 228.836L166.296 227.82L165.126 228.082L165.235 228.57ZM159.017 229.961H158.517V230.585L159.127 230.449L159.017 229.961ZM159.017 221.207L158.802 220.756L158.517 220.892V221.207H159.017ZM166.38 217.69L166.596 218.141L167.529 217.695L166.6 217.24L166.38 217.69ZM159.017 214.09H158.517V214.402L158.798 214.539L159.017 214.09ZM253.341 168.442L253.113 167.997L252.774 168.17L252.851 168.543L253.341 168.442ZM254.322 173.187L254.676 173.54L254.867 173.349L254.812 173.085L254.322 173.187ZM252.604 174.905L252.251 174.551L251.397 175.405H252.604V174.905ZM255.631 174.905L255.979 175.264L256.869 174.405H255.631V174.905ZM250.805 179.568L250.457 179.208L249.568 180.068H250.805V179.568ZM257.595 179.568L257.874 179.982L259.23 179.068H257.595V179.568ZM250.805 184.149L250.525 183.734L249.17 184.649H250.805V184.149ZM255.631 184.149L256.051 184.421L256.552 183.649H255.631V184.149ZM251.541 190.448L251.122 190.176L250.881 190.546L251.219 190.831L251.541 190.448ZM255.141 193.475L255.462 193.858L255.918 193.475L255.462 193.092L255.141 193.475ZM252.604 195.602L252.283 195.219L251.651 195.749L252.414 196.064L252.604 195.602ZM259.149 198.301L259.249 198.791L260.856 198.464L259.34 197.839L259.149 198.301ZM254.322 199.283L254.223 198.793L252.902 199.062L254.078 199.719L254.322 199.283ZM259.149 201.983L259.557 202.272L259.879 201.818L259.393 201.546L259.149 201.983ZM255.141 207.627L254.733 207.338L254.276 207.982L255.053 208.12L255.141 207.627ZM260.213 208.527L260.598 208.845L261.143 208.184L260.3 208.035L260.213 208.527ZM255.631 214.09L255.245 213.772L254.873 214.224L255.377 214.521L255.631 214.09ZM237.797 229.961L237.304 230.043L237.344 230.282L237.556 230.399L237.797 229.961ZM236.979 225.052L237.473 224.97L237.403 224.552H236.979V225.052ZM234.525 225.052L234.471 225.549L234.498 225.552H234.525V225.052ZM235.67 214.09L236.079 214.378L236.53 213.738L235.76 213.598L235.67 214.09ZM226.876 215.644L227.351 215.488L226.876 215.644ZM226.017 205.255L226.512 205.184L226.451 204.755H226.017V205.255ZM221.418 205.255L220.93 205.145L220.793 205.755H221.418V205.255ZM223.808 194.62L224.296 194.73L224.452 194.038L223.748 194.124L223.808 194.62ZM215.791 195.602L215.378 195.32L214.757 196.232L215.852 196.098L215.791 195.602ZM220.863 188.157L221.277 188.439L220.573 187.75L220.863 188.157ZM217.346 184.149L217.643 184.55L217.759 184.465L217.811 184.332L217.346 184.149ZM219.145 179.568L219.611 179.75L219.837 179.175L219.227 179.074L219.145 179.568ZM208.756 177.85L208.348 177.561L207.887 178.213L208.674 178.343L208.756 177.85ZM174.724 239.123L174.297 238.864L173.836 239.623H174.724V239.123ZM184.214 241.986L183.774 242.225L183.98 242.603L184.385 242.456L184.214 241.986ZM187.813 240.677H188.313V239.963L187.643 240.207L187.813 240.677ZM187.813 246.077H187.313V246.964L188.073 246.504L187.813 246.077ZM202.13 246.077H202.63V244.954L201.795 245.705L202.13 246.077ZM208.756 247.631H209.256V246.018L208.344 247.348L208.756 247.631ZM208.756 255.648H208.256V256.311L208.893 256.129L208.756 255.648ZM205.238 262.847H205.738V262.198L205.111 262.363L205.238 262.847ZM205.238 265.956H204.738V266.725L205.441 266.413L205.238 265.956ZM166.38 207.627L165.964 207.35L165.446 208.127H166.38V207.627ZM170.798 207.627L171.258 207.821L171.551 207.127H170.798V207.627ZM169.489 210.736L169.028 210.542L168.786 211.116L169.399 211.228L169.489 210.736ZM176.197 211.963L176.64 212.195L176.954 211.593L176.287 211.471L176.197 211.963ZM173.415 217.281L172.972 217.049L172.646 217.673L173.343 217.775L173.415 217.281ZM163.108 225.952L162.921 225.488L161.305 226.14L163.02 226.444L163.108 225.952ZM168.18 226.852H168.68V226.433L168.267 226.36L168.18 226.852ZM168.18 233.069H167.68V234.131L168.498 233.455L168.18 233.069ZM179.96 223.907L179.48 223.767L179.293 224.407H179.96V223.907ZM184.214 223.907L184.688 224.065L184.908 223.407H184.214V223.907ZM182.66 228.57L182.185 228.412L181.966 229.07H182.66V228.57ZM185.359 228.57L185.834 228.728L186.053 228.07H185.359V228.57ZM224.463 178.913L224.018 178.685L223.859 178.994L224.094 179.251L224.463 178.913ZM227.981 182.758L228.294 183.148L228.709 182.814L228.35 182.421L227.981 182.758ZM223.808 186.112L223.495 185.722L222.859 186.234L223.604 186.568L223.808 186.112ZM230.926 189.303L231.097 189.772L232.256 189.351L231.13 188.846L230.926 189.303ZM234.525 200.919L234.943 201.194L235.331 200.605L234.646 200.434L234.525 200.919ZM236.979 221.207L236.56 220.935L236.059 221.707H236.979V221.207ZM243.442 221.207L243.864 221.476L244.354 220.707H243.442V221.207ZM240.988 225.052L240.566 224.783L240.076 225.552H240.988V225.052ZM240.988 208.527L240.828 208.054L239.569 208.479L240.796 208.989L240.988 208.527ZM246.305 206.727L246.466 207.201L247.395 206.886L246.594 206.319L246.305 206.727ZM247.696 195.602L247.546 195.125L246.869 195.338L247.298 195.904L247.696 195.602ZM250.805 194.62L250.955 195.097L251.858 194.812L251.114 194.227L250.805 194.62ZM244.342 190.448L244.575 190.89L244.342 189.948V190.448ZM236.979 190.448L236.58 190.147L235.976 190.948H236.979V190.448ZM240.988 185.13L241.387 185.431L241.991 184.63H240.988V185.13ZM240.988 177.85V178.35L241.161 177.381L240.988 177.85ZM235.67 175.886L235.347 175.505L234.693 176.058L235.497 176.355L235.67 175.886ZM237.797 174.086L238.12 174.468L239.162 173.586H237.797V174.086ZM232.316 174.086L232.049 173.664L230.588 174.586H232.316V174.086ZM236.979 171.141L237.246 171.564L238.707 170.641H236.979V171.141ZM233.134 171.141H232.634V171.641H233.134V171.141ZM243.442 168.033L243.247 167.572L243.442 168.533V168.033ZM246.305 168.033L246.616 168.425L247.742 167.533H246.305V168.033ZM244.342 169.587L244.032 169.195L243.336 169.746L244.167 170.056L244.342 169.587ZM248.514 171.141L248.967 171.352L249.196 170.862L248.689 170.673L248.514 171.141ZM234.525 275.527L234.992 275.707L235.085 275.463L234.939 275.247L234.525 275.527ZM219.145 315.531L218.891 315.961L219.4 316.262L219.612 315.71L219.145 315.531ZM217.346 314.467L216.867 314.324L216.755 314.699L217.091 314.898L217.346 314.467ZM228.962 275.527L229.441 275.67L229.511 275.438L229.372 275.24L228.962 275.527ZM242.46 251.639L242.032 251.897L242.108 252.024L242.24 252.088L242.46 251.639ZM257.022 269.473L257.469 269.25L256.522 269.473H257.022ZM258.167 275.527L257.689 275.381L258.562 275.834L258.167 275.527ZM259.394 271.519L259.873 271.665L259.908 271.55L259.887 271.432L259.394 271.519ZM258.167 264.565L258.66 264.478L258.64 264.367L258.575 264.276L258.167 264.565ZM247.369 249.349L247.777 249.059L247.735 249L247.677 248.955L247.369 249.349ZM266.348 245.013L266.846 245.058L266.863 244.868L266.75 244.715L266.348 245.013ZM263.976 271.519L263.478 271.474L263.46 271.674L263.585 271.831L263.976 271.519ZM271.338 247.631L271.832 247.708L271.86 247.529L271.767 247.374L271.338 247.631ZM321.977 157.48L322.284 157.874L322.675 157.57L322.374 157.176L321.977 157.48ZM319.768 159.198L319.929 159.671L320.009 159.644L320.075 159.592L319.768 159.198ZM326.231 185.458L326.723 185.544L326.792 185.149L326.422 184.996L326.231 185.458ZM321.977 187.339L322.153 186.871L321.977 187.339ZM304.225 180.14L304.052 180.609L304.31 180.705L304.529 180.537L304.225 180.14ZM226.498 166.37L227.643 162.362L226.682 162.087L225.536 166.096L226.498 166.37ZM226.856 162.619L232.009 166.628L232.623 165.838L227.469 161.83L226.856 162.619ZM232.816 166.233V162.224H231.816V166.233H232.816ZM232.003 162.614L235.357 165.314L235.984 164.535L232.63 161.835L232.003 162.614ZM236.154 165.053L237.462 160.145L236.496 159.887L235.187 164.795L236.154 165.053ZM236.677 160.414L243.14 165.322L243.745 164.526L237.282 159.618L236.677 160.414ZM243.942 164.924V160.016H242.942V164.924H243.942ZM243.212 160.459L247.466 162.668L247.926 161.781L243.673 159.572L243.212 160.459ZM247.945 162.658L251.79 160.449L251.292 159.582L247.447 161.791L247.945 162.658ZM251.082 160.214L252.146 162.669L253.063 162.271L252 159.817L251.082 160.214ZM252.825 162.919L257.815 160.464L257.374 159.567L252.384 162.021L252.825 162.919ZM257.154 160.251L259.771 165.159L260.654 164.689L258.036 159.78L257.154 160.251ZM260.213 165.424H265.121V164.424H260.213V165.424ZM264.621 164.924V166.233H265.621V164.924H264.621ZM265.121 166.733H270.766V165.733H265.121V166.733ZM270.266 166.233V171.141H271.266V166.233H270.266ZM270.955 171.604L278.563 168.496L278.185 167.57L270.577 170.679L270.955 171.604ZM277.874 168.033V171.141H278.874V168.033H277.874ZM278.545 171.611L282.799 170.057L282.456 169.117L278.202 170.672L278.545 171.611ZM291.56 178.293L295.977 180.584L296.438 179.696L292.02 177.406L291.56 178.293ZM295.872 179.77L291.454 183.778L292.126 184.519L296.544 180.51L295.872 179.77ZM291.79 184.649H294.408V183.649H291.79V184.649ZM293.908 184.149V189.303H294.908V184.149H293.908ZM293.972 189.547L298.471 197.564L299.343 197.075L294.844 189.058L293.972 189.547ZM299.055 196.842C298.212 196.581 296.92 196.518 295.82 197.244C294.693 197.987 293.908 199.461 293.908 201.983H294.908C294.908 199.661 295.622 198.572 296.37 198.079C297.145 197.568 298.102 197.594 298.76 197.797L299.055 196.842ZM293.908 201.983C293.908 206.625 291.186 209.489 289.886 210.314L290.422 211.158C291.958 210.183 294.908 207.026 294.908 201.983H293.908ZM289.654 210.736V214.09H290.654V210.736H289.654ZM289.795 213.742L287.177 216.442L287.895 217.138L290.513 214.438L289.795 213.742ZM287.723 216.326L281.015 213.626L280.641 214.554L287.349 217.254L287.723 216.326ZM280.381 213.866L277.926 218.775L278.821 219.222L281.275 214.314L280.381 213.866ZM278.594 218.55L274.095 216.341L273.654 217.239L278.153 219.447L278.594 218.55ZM273.606 216.368L266.653 220.785L267.189 221.629L274.142 217.212L273.606 216.368ZM267.399 221.063L266.336 217.545L265.379 217.834L266.442 221.352L267.399 221.063ZM265.936 217.196L260.291 216.296L260.134 217.283L265.778 218.183L265.936 217.196ZM259.89 216.408L257.272 218.616L257.917 219.381L260.535 217.172L259.89 216.408ZM257.392 218.541L252.402 220.75L252.807 221.664L257.797 219.456L257.392 218.541ZM252.123 221.074L251.059 224.919L252.023 225.186L253.086 221.341L252.123 221.074ZM251.096 224.824L249.296 228.342L250.186 228.798L251.986 225.28L251.096 224.824ZM249.741 228.07H243.442V229.07H249.741V228.07ZM242.942 228.57V233.069H243.942V228.57H242.942ZM243.442 232.569H236.979V233.569H243.442V232.569ZM236.524 232.862L234.07 238.262L234.98 238.675L237.435 233.276L236.524 232.862ZM234.705 238.002L231.106 236.611L230.745 237.544L234.345 238.935L234.705 238.002ZM230.426 237.078V241.986H231.426V237.078H230.426ZM230.763 241.514L223.645 243.968L223.971 244.913L231.089 242.459L230.763 241.514ZM223.308 244.44V250.494H224.308V244.44H223.308ZM223.588 250.045L218.925 252.336L219.366 253.234L224.029 250.943L223.588 250.045ZM218.659 252.902L220.377 260.019L221.349 259.785L219.631 252.667L218.659 252.902ZM220.376 260.014L221.767 266.068L222.741 265.844L221.351 259.79L220.376 260.014ZM222.254 265.456H219.145V266.456H222.254V265.456ZM218.645 265.956V270.619H219.645V265.956H218.645ZM218.742 270.323L216.942 272.777L217.749 273.369L219.549 270.914L218.742 270.323ZM217.077 272.651L213.232 275.106L213.77 275.949L217.615 273.494L217.077 272.651ZM213.001 275.527V281.172H214.001V275.527H213.001ZM213.501 280.672H210.392V281.672H213.501V280.672ZM209.892 281.172V282.726H210.892V281.172H209.892ZM209.943 282.506L206.343 289.869L207.242 290.308L210.841 282.946L209.943 282.506ZM207.098 289.693L204.235 287.484L203.624 288.276L206.487 290.485L207.098 289.693ZM203.446 287.75L201.647 294.459L202.613 294.718L204.412 288.009L203.446 287.75ZM202.402 294.169L197.494 290.978L196.949 291.817L201.857 295.007L202.402 294.169ZM196.89 291.023L189.036 297.977L189.699 298.726L197.553 291.772L196.89 291.023ZM189.868 298.351V294.588H188.868V298.351H189.868ZM189.02 294.229L186.32 296.847L187.016 297.565L189.716 294.947L189.02 294.229ZM186.668 296.706H183.805V297.706H186.668V296.706ZM183.451 296.852L179.606 300.697L180.313 301.404L184.158 297.559L183.451 296.852ZM180.393 300.802L178.185 296.957L177.318 297.455L179.526 301.3L180.393 300.802ZM177.386 296.864L173.787 300.709L174.517 301.393L178.116 297.548L177.386 296.864ZM174.585 300.801L173.031 298.102L172.164 298.601L173.718 301.3L174.585 300.801ZM172.374 297.904L169.265 299.458L169.712 300.353L172.821 298.798L172.374 297.904ZM169.939 299.687L168.63 296.988L167.73 297.424L169.039 300.124L169.939 299.687ZM168.18 296.706H164.58V297.706H168.18V296.706ZM165.056 297.051L163.747 293.042L162.796 293.353L164.105 297.361L165.056 297.051ZM163.058 292.745L160.113 294.136L160.54 295.04L163.485 293.65L163.058 292.745ZM160.806 294.448L159.497 289.949L158.537 290.228L159.846 294.728L160.806 294.448ZM158.894 289.604L153.74 290.913L153.987 291.882L159.14 290.573L158.894 289.604ZM154.364 291.398V286.244H153.364V291.398H154.364ZM153.864 285.744H143.556V286.744H153.864V285.744ZM144.056 286.244V275.527H143.056V286.244H144.056ZM143.556 275.027H138.893V276.027H143.556V275.027ZM139.294 275.825L146.411 266.254L145.609 265.657L138.492 275.229L139.294 275.825ZM146.01 265.456H141.879V266.456H146.01V265.456ZM141.879 265.456H137.748V266.456H141.879V265.456ZM142.292 265.674L138.161 259.62L137.335 260.184L141.466 266.238L142.292 265.674ZM137.942 260.363L143.75 257.908L143.361 256.987L137.553 259.441L137.942 260.363ZM143.922 257.107L142.245 255.307L141.513 255.989L143.19 257.789L143.922 257.107ZM142.31 255.901L143.987 253.037L143.124 252.532L141.447 255.395L142.31 255.901ZM143.556 252.285H138.893V253.285H143.556V252.285ZM139.364 252.953L142.35 244.609L141.408 244.272L138.422 252.616L139.364 252.953ZM141.879 243.94H138.893V244.94H141.879V243.94ZM139.252 244.788L146.37 237.425L145.651 236.73L138.533 244.093L139.252 244.788ZM146.14 236.595L142.786 235.695L142.526 236.661L145.88 237.561L146.14 236.595ZM142.94 236.589L147.44 233.481L146.871 232.658L142.372 235.767L142.94 236.589ZM147.482 232.691L143.883 229.582L143.229 230.339L146.829 233.448L147.482 232.691ZM143.838 230.374L151.037 225.465L150.473 224.639L143.274 229.548L143.838 230.374ZM151.037 224.639L147.437 222.185L146.874 223.011L150.473 225.465L151.037 224.639ZM147.509 222.952L151.108 219.352L150.401 218.645L146.802 222.244L147.509 222.952ZM151.195 218.762L149.396 215.408L148.515 215.881L150.314 219.235L151.195 218.762ZM149.213 216.073L159.275 210.019L158.76 209.162L148.697 215.216L149.213 216.073ZM159.517 209.591V206.727H158.517V209.591H159.517ZM159.148 207.21C160.54 206.834 162.55 206.083 164.027 205.035C164.764 204.512 165.412 203.885 165.761 203.153C166.123 202.392 166.146 201.545 165.674 200.68L164.796 201.159C165.109 201.733 165.088 202.24 164.858 202.723C164.614 203.235 164.121 203.742 163.448 204.219C162.106 205.172 160.221 205.884 158.887 206.245L159.148 207.21ZM165.674 200.68C165.339 200.066 165.377 199.664 165.53 199.377C165.702 199.053 166.087 198.752 166.682 198.5C167.864 197.999 169.569 197.82 170.798 197.82V196.82C169.518 196.82 167.656 197.001 166.291 197.579C165.612 197.867 164.978 198.286 164.647 198.907C164.296 199.565 164.345 200.333 164.796 201.159L165.674 200.68ZM171.118 197.704L176.517 193.204L175.877 192.436L170.477 196.936L171.118 197.704ZM176.697 192.82V188.157H175.697V192.82H176.697ZM176.197 188.657H179.96V187.657H176.197V188.657ZM180.46 188.157V182.758H179.46V188.157H180.46ZM179.96 183.258H189.368V182.258H179.96V183.258ZM189.842 182.916L192.133 176.044L191.184 175.728L188.893 182.6L189.842 182.916ZM191.658 176.386H200.821V175.386H191.658V176.386ZM201.303 176.019L202.612 171.274L201.648 171.008L200.339 175.753L201.303 176.019ZM202.13 171.641H213.501V170.641H202.13V171.641ZM213.903 171.438L216.194 168.329L215.389 167.736L213.098 170.845L213.903 171.438ZM215.878 168.525L226.104 166.725L225.931 165.741L215.705 167.54L215.878 168.525ZM175.699 192.863L177.253 210.779L178.249 210.693L176.695 192.777L175.699 192.863ZM177.913 211.209L184.376 209L184.052 208.054L177.589 210.263L177.913 211.209ZM183.723 208.435L182.168 216.697L183.151 216.882L184.705 208.62L183.723 208.435ZM182.768 217.278L187.922 216.132L187.705 215.156L182.551 216.302L182.768 217.278ZM187.34 215.807L191.185 227.014L192.131 226.69L188.286 215.482L187.34 215.807ZM191.811 227.328L200.974 224.383L200.668 223.431L191.505 226.376L191.811 227.328ZM200.373 223.683L196.774 230.882L197.668 231.33L201.268 224.131L200.373 223.683ZM197.489 231.528L204.197 227.274L203.662 226.43L196.953 230.684L197.489 231.528ZM203.429 226.852V233.069H204.429V226.852H203.429ZM204.212 233.482L207.075 231.518L206.51 230.694L203.647 232.657L204.212 233.482ZM206.309 230.98L204.754 236.952L205.722 237.204L207.276 231.232L206.309 230.98ZM205.238 237.578H213.501V236.578H205.238V237.578ZM213.028 236.915L209.92 245.913L210.865 246.24L213.973 237.241L213.028 236.915ZM210.694 246.475L216.093 242.385L215.489 241.588L210.09 245.678L210.694 246.475ZM215.291 241.986V251.639H216.291V241.986H215.291ZM215.365 251.901L220.437 260.164L221.29 259.64L216.217 251.378L215.365 251.901ZM210.865 281.01L207.266 270.457L206.319 270.78L209.919 281.333L210.865 281.01ZM206.793 270.119H199.185V271.119H206.793V270.119ZM199.185 270.119H194.767V271.119H199.185V270.119ZM195.161 270.926L201.215 263.154L200.426 262.54L194.373 270.311L195.161 270.926ZM200.52 262.448L190.212 270.219L190.814 271.018L201.122 263.246L200.52 262.448ZM191.001 270.508L188.301 258.646L187.326 258.868L190.025 270.73L191.001 270.508ZM187.385 258.499L184.93 262.59L185.788 263.104L188.242 259.014L187.385 258.499ZM185.859 262.847V255.648H184.859V262.847H185.859ZM185.064 255.244L180.81 258.353L181.4 259.16L185.654 256.052L185.064 255.244ZM181.605 258.757V252.785H180.605V258.757H181.605ZM180.899 252.329L170.591 256.992L171.004 257.903L181.311 253.24L180.899 252.329ZM171.248 257.665L174.602 250.711L173.701 250.277L170.347 257.231L171.248 257.665ZM174.152 249.994H168.18V250.994H174.152V249.994ZM168.668 250.6L169.977 244.546L169 244.335L167.691 250.388L168.668 250.6ZM169.216 244.021L164.308 247.212L164.853 248.05L169.761 244.86L169.216 244.021ZM165.08 247.631V238.469H164.08V247.631H165.08ZM164.58 237.969H159.017V238.969H164.58V237.969ZM159.441 238.734L165.658 228.836L164.811 228.304L158.594 238.203L159.441 238.734ZM165.126 228.082L158.908 229.473L159.127 230.449L165.344 229.058L165.126 228.082ZM159.517 229.961V221.207H158.517V229.961H159.517ZM159.233 221.658L166.596 218.141L166.164 217.238L158.802 220.756L159.233 221.658ZM166.6 217.24L159.237 213.641L158.798 214.539L166.16 218.139L166.6 217.24ZM159.517 214.09V209.591H158.517V214.09H159.517ZM259.985 164.479L253.113 167.997L253.569 168.887L260.44 165.369L259.985 164.479ZM252.851 168.543L253.833 173.288L254.812 173.085L253.83 168.341L252.851 168.543ZM253.969 172.833L252.251 174.551L252.958 175.258L254.676 173.54L253.969 172.833ZM252.604 175.405H255.631V174.405H252.604V175.405ZM255.284 174.545L250.457 179.208L251.152 179.927L255.979 175.264L255.284 174.545ZM250.805 180.068H257.595V179.068H250.805V180.068ZM257.315 179.153L250.525 183.734L251.084 184.563L257.874 179.982L257.315 179.153ZM250.805 184.649H255.631V183.649H250.805V184.649ZM255.212 183.876L251.122 190.176L251.96 190.72L256.051 184.421L255.212 183.876ZM251.219 190.831L254.819 193.857L255.462 193.092L251.863 190.065L251.219 190.831ZM254.819 193.092L252.283 195.219L252.926 195.985L255.462 193.858L254.819 193.092ZM252.414 196.064L258.958 198.764L259.34 197.839L252.795 195.139L252.414 196.064ZM259.049 197.811L254.223 198.793L254.422 199.773L259.249 198.791L259.049 197.811ZM254.078 199.719L258.905 202.419L259.393 201.546L254.567 198.847L254.078 199.719ZM258.741 201.693L254.733 207.338L255.548 207.917L259.557 202.272L258.741 201.693ZM255.053 208.12L260.125 209.02L260.3 208.035L255.228 207.135L255.053 208.12ZM259.827 208.209L255.245 213.772L256.017 214.408L260.598 208.845L259.827 208.209ZM255.377 214.521L259.959 217.22L260.466 216.359L255.885 213.659L255.377 214.521ZM243.683 232.631L238.039 229.523L237.556 230.399L243.201 233.507L243.683 232.631ZM238.291 229.878L237.473 224.97L236.486 225.134L237.304 230.043L238.291 229.878ZM236.979 224.552H234.525V225.552H236.979V224.552ZM234.579 224.555C234.17 224.511 233.584 224.297 233.177 223.82C232.791 223.366 232.505 222.603 232.803 221.321L231.829 221.094C231.473 222.626 231.787 223.73 232.416 224.469C233.025 225.183 233.871 225.484 234.471 225.549L234.579 224.555ZM232.803 221.321C233.437 218.598 235.249 215.557 236.079 214.378L235.262 213.802C234.401 215.023 232.505 218.188 231.829 221.094L232.803 221.321ZM226.017 204.755H221.418V205.755H226.017V204.755ZM221.905 205.365L224.296 194.73L223.321 194.51L220.93 205.145L221.905 205.365ZM223.748 194.124L215.731 195.105L215.852 196.098L223.869 195.116L223.748 194.124ZM216.205 195.883L221.277 188.439L220.45 187.876L215.378 195.32L216.205 195.883ZM220.573 187.75C219.64 188.416 218.124 189.344 216.621 189.956C215.869 190.263 215.141 190.482 214.503 190.558C213.858 190.636 213.366 190.56 213.028 190.35L212.501 191.2C213.112 191.579 213.868 191.641 214.622 191.551C215.382 191.46 216.202 191.207 216.999 190.882C218.593 190.232 220.178 189.262 221.154 188.564L220.573 187.75ZM213.028 190.35C212.883 190.26 212.826 190.169 212.802 190.083C212.773 189.986 212.771 189.839 212.833 189.625C212.963 189.186 213.321 188.621 213.856 187.987C214.914 186.734 216.499 185.399 217.643 184.55L217.048 183.747C215.875 184.617 214.22 186.005 213.092 187.342C212.535 188.002 212.064 188.698 211.874 189.343C211.777 189.672 211.743 190.023 211.841 190.362C211.943 190.713 212.172 190.996 212.501 191.2L213.028 190.35ZM217.811 184.332L219.611 179.75L218.68 179.385L216.88 183.966L217.811 184.332ZM219.227 179.074L208.838 177.356L208.674 178.343L219.064 180.061L219.227 179.074ZM209.164 178.138L213.909 171.43L213.093 170.853L208.348 177.561L209.164 178.138ZM235.76 213.598C234.423 213.355 232.583 213.122 230.904 213.105C230.066 213.097 229.251 213.142 228.553 213.273C227.87 213.401 227.224 213.624 226.795 214.027L227.481 214.756C227.697 214.552 228.111 214.373 228.737 214.256C229.347 214.141 230.09 214.097 230.894 214.105C232.5 214.122 234.281 214.346 235.581 214.582L235.76 213.598ZM227.636 214.35C227.444 212.014 226.901 207.903 226.512 205.184L225.522 205.326C225.911 208.046 226.45 212.129 226.64 214.432L227.636 214.35ZM226.401 215.801C226.448 215.945 226.493 216.068 226.537 216.168C226.574 216.254 226.631 216.372 226.714 216.465C226.751 216.507 226.852 216.611 227.02 216.646C227.24 216.692 227.42 216.593 227.521 216.482C227.601 216.394 227.636 216.298 227.65 216.252C227.668 216.197 227.678 216.142 227.685 216.095C227.711 215.92 227.712 215.67 227.702 215.393C227.692 215.105 227.669 214.751 227.636 214.35L226.64 214.432C226.672 214.826 226.694 215.162 226.703 215.428C226.712 215.705 226.707 215.874 226.696 215.95C226.693 215.966 226.693 215.963 226.697 215.949C226.699 215.944 226.718 215.879 226.781 215.81C226.865 215.718 227.026 215.626 227.224 215.667C227.37 215.698 227.448 215.786 227.459 215.799C227.491 215.834 227.487 215.845 227.454 215.769C227.428 215.708 227.393 215.617 227.351 215.488L226.401 215.801ZM226.795 214.027C226.571 214.238 226.403 214.502 226.331 214.82C226.26 215.134 226.29 215.465 226.401 215.801L227.351 215.488C227.284 215.285 227.283 215.142 227.306 215.041C227.329 214.943 227.381 214.849 227.481 214.756L226.795 214.027ZM177.324 233.873L174.297 238.864L175.152 239.382L178.179 234.392L177.324 233.873ZM174.724 239.623H179.96V238.623H174.724V239.623ZM182.22 239.362L183.774 242.225L184.653 241.748L183.099 238.884L182.22 239.362ZM184.385 242.456L187.984 241.147L187.643 240.207L184.043 241.516L184.385 242.456ZM187.313 240.677V246.077H188.313V240.677H187.313ZM188.073 246.504L190.772 244.868L190.254 244.013L187.554 245.649L188.073 246.504ZM197.556 250.866L202.464 246.448L201.795 245.705L196.887 250.123L197.556 250.866ZM201.63 246.077V251.639H202.63V246.077H201.63ZM207.205 250.777L209.168 247.914L208.344 247.348L206.38 250.211L207.205 250.777ZM208.256 247.631V255.648H209.256V247.631H208.256ZM208.893 256.129L212.902 254.983L212.627 254.022L208.619 255.167L208.893 256.129ZM202.257 264.149L205.366 263.331L205.111 262.363L202.002 263.182L202.257 264.149ZM204.738 262.847V265.956H205.738V262.847H204.738ZM205.441 266.413L210.595 264.122L210.189 263.208L205.035 265.499L205.441 266.413ZM169.073 202.687L165.964 207.35L166.796 207.905L169.905 203.242L169.073 202.687ZM166.38 208.127H170.798V207.127H166.38V208.127ZM170.337 207.433L169.028 210.542L169.949 210.93L171.258 207.821L170.337 207.433ZM169.399 211.228L176.107 212.455L176.287 211.471L169.579 210.244L169.399 211.228ZM175.754 211.731L172.972 217.049L173.858 217.512L176.64 212.195L175.754 211.731ZM173.343 217.775L176.124 218.184L176.27 217.195L173.488 216.786L173.343 217.775ZM167.993 223.443L162.921 225.488L163.295 226.416L168.367 224.371L167.993 223.443ZM163.02 226.444L168.092 227.344L168.267 226.36L163.195 225.46L163.02 226.444ZM167.68 226.852V233.069H168.68V226.852H167.68ZM168.498 233.455L172.261 230.346L171.624 229.575L167.861 232.684L168.498 233.455ZM180.625 219.84L179.48 223.767L180.44 224.047L181.585 220.12L180.625 219.84ZM179.96 224.407H184.214V223.407H179.96V224.407ZM183.74 223.749L182.185 228.412L183.134 228.728L184.688 224.065L183.74 223.749ZM182.66 229.07H185.359V228.07H182.66V229.07ZM184.885 228.412L183.74 231.848L184.688 232.164L185.834 228.728L184.885 228.412ZM190.013 254.503V258.757H191.013V254.503H190.013ZM225.572 175.658L224.018 178.685L224.908 179.141L226.462 176.115L225.572 175.658ZM224.094 179.251L227.612 183.096L228.35 182.421L224.832 178.576L224.094 179.251ZM227.667 182.368L223.495 185.722L224.122 186.502L228.294 183.148L227.667 182.368ZM223.604 186.568L230.721 189.759L231.13 188.846L224.013 185.656L223.604 186.568ZM230.755 188.833L226.705 190.305L227.047 191.245L231.097 189.772L230.755 188.833ZM227.859 199.768L234.404 201.404L234.646 200.434L228.102 198.798L227.859 199.768ZM234.108 200.644L231.899 203.998L232.734 204.548L234.943 201.194L234.108 200.644ZM239.423 216.518L236.56 220.935L237.399 221.479L240.262 217.062L239.423 216.518ZM236.979 221.707H243.442V220.707H236.979V221.707ZM243.021 220.938L240.566 224.783L241.409 225.321L243.864 221.476L243.021 220.938ZM240.988 225.552H246.305V224.552H240.988V225.552ZM246.497 210.274L241.18 208.065L240.796 208.989L246.114 211.198L246.497 210.274ZM241.148 209.001L246.466 207.201L246.145 206.254L240.828 208.054L241.148 209.001ZM246.594 206.319L241.277 202.556L240.699 203.372L246.017 207.136L246.594 206.319ZM234.337 207.164L232.128 208.064L232.505 208.99L234.714 208.09L234.337 207.164ZM250.14 197.999L248.095 195.3L247.298 195.904L249.343 198.603L250.14 197.999ZM247.847 196.078L250.955 195.097L250.654 194.143L247.546 195.125L247.847 196.078ZM251.114 194.227L248.823 192.427L248.205 193.213L250.496 195.013L251.114 194.227ZM240.076 193.263L244.575 190.89L244.109 190.006L239.609 192.378L240.076 193.263ZM244.342 189.948H236.979V190.948H244.342V189.948ZM237.379 190.749L241.387 185.431L240.589 184.829L236.58 190.147L237.379 190.749ZM240.988 184.63H238.984V185.63H240.988V184.63ZM238.984 184.63H236.979V185.63H238.984V184.63ZM236.979 178.35H240.988V177.35H236.979V178.35ZM241.161 177.381L235.844 175.417L235.497 176.355L240.815 178.319L241.161 177.381ZM235.993 176.268L238.12 174.468L237.474 173.705L235.347 175.505L235.993 176.268ZM237.797 173.586H232.316V174.586H237.797V173.586ZM232.583 174.509L237.246 171.564L236.712 170.719L232.049 173.664L232.583 174.509ZM236.979 170.641H233.134V171.641H236.979V170.641ZM233.634 171.141V169.587H232.634V171.141H233.634ZM247.501 165.773L243.247 167.572L243.637 168.493L247.891 166.694L247.501 165.773ZM243.442 168.533H246.305V167.533H243.442V168.533ZM245.995 167.641L244.032 169.195L244.652 169.979L246.616 168.425L245.995 167.641ZM244.167 170.056L248.34 171.61L248.689 170.673L244.517 169.119L244.167 170.056ZM248.061 170.93L245.852 175.675L246.759 176.097L248.967 171.352L248.061 170.93ZM218.731 253.065L234.111 275.807L234.939 275.247L219.56 252.505L218.731 253.065ZM234.058 275.348L218.679 315.351L219.612 315.71L234.992 275.707L234.058 275.348ZM219.4 315.1L217.6 314.037L217.091 314.898L218.891 315.961L219.4 315.1ZM217.825 314.61L229.441 275.67L228.483 275.384L216.867 314.324L217.825 314.61ZM229.372 275.24L222.664 265.669L221.845 266.243L228.553 275.814L229.372 275.24ZM234.097 238.727L242.032 251.897L242.889 251.381L234.953 238.211L234.097 238.727ZM242.24 252.088C245.026 253.455 251.282 258.395 253.594 267.066L254.56 266.809C252.16 257.809 245.676 252.66 242.681 251.191L242.24 252.088ZM253.594 267.066C254.185 269.281 254.671 270.752 255.074 271.662C255.273 272.113 255.466 272.458 255.661 272.691C255.832 272.896 256.146 273.174 256.56 273.066C256.75 273.016 256.885 272.898 256.973 272.789C257.061 272.68 257.126 272.555 257.174 272.436C257.272 272.197 257.339 271.902 257.387 271.594C257.485 270.972 257.522 270.194 257.522 269.473H256.522C256.522 270.17 256.486 270.889 256.399 271.438C256.356 271.716 256.303 271.924 256.248 272.058C256.221 272.125 256.202 272.153 256.197 272.158C256.193 272.163 256.226 272.119 256.306 272.098C256.499 272.048 256.555 272.202 256.428 272.049C256.323 271.925 256.176 271.68 255.988 271.257C255.618 270.421 255.147 269.011 254.56 266.809L253.594 267.066ZM259.887 271.432L258.66 264.478L257.675 264.652L258.902 271.605L259.887 271.432ZM258.575 264.276L247.777 249.059L246.961 249.638L257.76 264.854L258.575 264.276ZM247.677 248.955C246.305 247.879 244.235 246.047 242.497 244.062C241.628 243.069 240.852 242.049 240.287 241.074C239.718 240.092 239.389 239.198 239.361 238.45L238.361 238.487C238.398 239.473 238.818 240.534 239.422 241.576C240.03 242.626 240.851 243.7 241.745 244.721C243.533 246.763 245.651 248.637 247.06 249.742L247.677 248.955ZM239.361 238.45C239.302 236.89 239.969 235.764 240.845 234.972C241.734 234.168 242.829 233.719 243.551 233.557L243.333 232.581C242.473 232.774 241.213 233.291 240.174 234.23C239.122 235.182 238.289 236.578 238.361 238.487L239.361 238.45ZM251.139 225.35L265.946 245.311L266.75 244.715L251.943 224.754L251.139 225.35ZM265.85 244.969L263.478 271.474L264.474 271.563L266.846 245.058L265.85 244.969ZM263.585 271.831C263.901 272.226 264.51 272.73 265.275 272.708C266.095 272.684 266.822 272.073 267.378 270.822L266.464 270.416C265.973 271.52 265.499 271.701 265.245 271.708C264.936 271.717 264.595 271.493 264.366 271.206L263.585 271.831ZM267.378 270.822C267.664 270.177 268.016 268.81 268.395 267.079C268.779 265.328 269.203 263.148 269.625 260.837C270.47 256.214 271.314 251.051 271.832 247.708L270.844 247.554C270.327 250.892 269.485 256.045 268.642 260.657C268.22 262.963 267.799 265.13 267.419 266.865C267.033 268.622 266.701 269.882 266.464 270.416L267.378 270.822ZM271.767 247.374C269.043 242.825 265.09 235.939 262.081 230.064C260.575 227.124 259.313 224.451 258.559 222.456C258.181 221.455 257.941 220.651 257.855 220.081C257.811 219.793 257.813 219.602 257.835 219.487C257.856 219.377 257.879 219.416 257.818 219.446L257.371 218.551C257.049 218.712 256.907 219.018 256.853 219.298C256.8 219.574 256.815 219.895 256.866 220.231C256.968 220.907 257.238 221.79 257.624 222.81C258.398 224.859 259.681 227.571 261.191 230.52C264.214 236.422 268.179 243.329 270.909 247.888L271.767 247.374ZM282.249 169.914L283.804 171.714L284.56 171.06L283.006 169.26L282.249 169.914ZM283.804 171.714L285.358 173.513L286.115 172.86L284.56 171.06L283.804 171.714ZM284.419 171.827C289.092 169.307 296.317 165.522 302.805 162.361C306.05 160.78 309.105 159.358 311.561 158.328C312.79 157.812 313.862 157.398 314.73 157.111C315.615 156.819 316.236 156.677 316.587 156.671L316.568 155.671C316.051 155.681 315.302 155.869 314.416 156.162C313.514 156.46 312.415 156.885 311.174 157.405C308.693 158.446 305.619 159.878 302.367 161.462C295.863 164.631 288.625 168.422 283.945 170.947L284.419 171.827ZM316.587 156.671C318.277 156.639 319.483 156.845 320.293 157.103C321.125 157.368 321.493 157.671 321.58 157.783L322.374 157.176C322.106 156.825 321.509 156.441 320.597 156.15C319.663 155.853 318.346 155.637 316.568 155.671L316.587 156.671ZM321.67 157.085L319.461 158.803L320.075 159.592L322.284 157.874L321.67 157.085ZM319.607 158.724C314.04 160.621 305.655 163.597 298.594 166.363C295.065 167.745 291.857 169.078 289.496 170.199C288.317 170.758 287.335 171.271 286.627 171.716C286.273 171.938 285.974 172.152 285.749 172.354C285.542 172.539 285.323 172.779 285.251 173.065L286.221 173.308C286.215 173.332 286.232 173.264 286.416 173.098C286.582 172.95 286.828 172.771 287.158 172.563C287.818 172.149 288.758 171.656 289.924 171.102C292.254 169.996 295.436 168.673 298.959 167.294C306.001 164.536 314.37 161.565 319.929 159.671L319.607 158.724ZM285.431 173.583L288.458 175.914L289.068 175.122L286.041 172.79L285.431 173.583ZM288.458 175.914L291.485 178.246L292.095 177.453L289.068 175.122L288.458 175.914ZM288.92 175.993C291.186 175.242 297.257 174.294 303.143 176.597L303.507 175.666C297.35 173.257 291.031 174.24 288.606 175.043L288.92 175.993ZM303.143 176.597C309.158 178.951 320.912 183.792 326.039 185.919L326.422 184.996C321.296 182.869 309.533 178.024 303.507 175.666L303.143 176.597ZM325.738 185.371C325.659 185.825 325.384 186.439 324.849 186.816C324.343 187.172 323.509 187.384 322.153 186.871L321.8 187.807C323.389 188.407 324.587 188.223 325.425 187.633C326.232 187.064 326.612 186.181 326.723 185.544L325.738 185.371ZM322.153 186.871C321.291 186.546 320.008 185.77 318.458 184.791C316.929 183.825 315.171 182.684 313.41 181.679C311.652 180.677 309.854 179.79 308.235 179.345C306.635 178.905 305.073 178.86 303.921 179.743L304.529 180.537C305.298 179.948 306.457 179.893 307.97 180.309C309.465 180.72 311.175 181.557 312.914 182.548C314.65 183.538 316.38 184.661 317.924 185.636C319.446 186.598 320.822 187.438 321.8 187.807L322.153 186.871ZM304.398 179.671C302.316 178.904 299.186 177.866 296.568 177.248C295.265 176.941 294.055 176.73 293.156 176.72C292.713 176.715 292.288 176.757 291.956 176.9C291.784 176.975 291.614 177.086 291.486 177.254C291.353 177.429 291.29 177.634 291.29 177.85H292.29C292.29 177.836 292.291 177.847 292.282 177.859C292.278 177.865 292.29 177.845 292.353 177.818C292.49 177.759 292.745 177.715 293.144 177.72C293.929 177.729 295.05 177.918 296.338 178.222C298.901 178.826 301.989 179.849 304.052 180.609L304.398 179.671ZM256.575 269.697C256.865 270.278 257.238 271.136 257.527 272.029C257.821 272.935 258.011 273.824 257.979 274.487L258.978 274.536C259.019 273.686 258.782 272.656 258.479 271.721C258.172 270.774 257.779 269.869 257.469 269.25L256.575 269.697ZM258.956 274.658L259.873 271.665L258.916 271.372L258 274.365L258.956 274.658ZM258.645 275.673L258.956 274.658L258 274.365L257.689 275.381L258.645 275.673ZM257.979 274.487C257.961 274.847 257.88 275.082 257.773 275.22L258.562 275.834C258.847 275.468 258.955 274.999 258.978 274.536L257.979 274.487Z" fill="#303030"/>
<path d="M283.691 185.294C287.945 185.359 286.172 193.557 284.754 197.647C283.838 197.647 282.355 194.92 281.728 193.557C280.61 190.775 279.437 185.229 283.691 185.294Z" fill="#D9D9D9" stroke="#878787"/>
<path d="M199.185 185.948L195.258 189.712H201.394L199.185 194.702H204.993M183.151 193.229L181.433 199.038H190.595L185.932 202.392H193.376M202.375 209.672L200.33 214.335H207.774V219.898M214.319 202.392L212.765 207.464H216.528V216.953M219.718 230.533L218.409 238.06H222.336H224.708V234.296H225.854L228.881 231.515M152.555 234.296L149.201 241.577H152.555V246.976H155.5M150.673 254.83L149.201 260.393H152.555L149.201 269.146L154.027 267.51L150.673 275.363L158.69 274.218M163.026 253.848L159.672 261.374L166.707 260.393V263.174L169.898 261.374V269.146L173.416 264.32M163.026 282.235V287.471L168.016 285.998V294.179L169.898 292.707L171.207 295.488L172.516 291.97M169.898 275.363V278.309H174.724V282.235L181.433 280.354V287.471L183.151 282.235M181.433 267.51V272.746L184.787 271.6V272.746H187.65L188.55 277.736L192.068 274.218M190.595 287.471V291.97L193.376 285.998L195.258 288.943V283.544L197.467 285.998L201.394 280.354M265.448 172.369H259.64L263.158 176.622M263.158 183.576L258.904 185.049L269.866 185.948L264.139 189.712H267.821L264.139 193.229H267.821M266.757 200.183L259.64 202.392L266.757 204.437L264.139 207.464H269.866L267.821 209.672L269.866 211.554M277.719 196.011L276.574 199.038H280.91L275.511 205.746H280.91L276.574 211.554M277.719 172.369L272.893 174.577L275.511 176.622L272.893 177.931L276.574 178.913L272.893 180.549M288.191 177.931L285.736 180.549H290.072L289.336 182.758M291.136 197.565L287.045 200.183L291.136 202.392L289.336 204.437L291.136 207.464M276.574 185.948L275.511 187.666L276.083 190.611" stroke="black"/>
</g>
<defs>
<filter id="filter0_d_22_29" x="0.5" y="0.735382" width="436.292" height="425.526" filterUnits="userSpaceOnUse" color-interpolation-filters="sRGB">
<feFlood flood-opacity="0" result="BackgroundImageFix"/>
<feColorMatrix in="SourceAlpha" type="matrix" values="0 0 0 0 0 0 0 0 0 0 0 0 0 0 0 0 0 0 127 0" result="hardAlpha"/>
<feOffset dx="10" dy="10"/>
<feGaussianBlur stdDeviation="50"/>
<feComposite in2="hardAlpha" operator="out"/>
<feColorMatrix type="matrix" values="0 0 0 0 1 0 0 0 0 0.66 0 0 0 0 0 0 0 0 0.5 0"/>
<feBlend mode="normal" in2="BackgroundImageFix" result="effect1_dropShadow_22_29"/>
<feBlend mode="normal" in="SourceGraphic" in2="effect1_dropShadow_22_29" result="shape"/>
</filter>
</defs>
</svg>
